HIERARCHY
ROOT Hips
{
	OFFSET 0.00000 0.00000 0.00000
	CHANNELS 6 Xposition Yposition Zposition Zrotation Yrotation Xrotation 
	JOINT LHipJoint
	{
		OFFSET 0 0 0
		CHANNELS 3 Zrotation Yrotation Xrotation
		JOINT LeftHip
		{
			OFFSET 1.41261 -1.82971 0.84908
			CHANNELS 3 Zrotation Yrotation Xrotation
			JOINT LeftKnee
			{
				OFFSET 2.52554 -6.93888 0.00000
				CHANNELS 3 Zrotation Yrotation Xrotation
				JOINT LeftAnkle
				{
					OFFSET 2.56654 -7.05152 0.00000
					CHANNELS 3 Zrotation Yrotation Xrotation
					JOINT LeftToe
					{
						OFFSET 0.21698 -0.59616 1.85369
						CHANNELS 3 Zrotation Yrotation Xrotation
						End Site
						{
							OFFSET 0.00000 -0.00000 0.97832
						}
					}
				}
			}
		}
	}
	JOINT RHipJoint
	{
		OFFSET 0 0 0
		CHANNELS 3 Zrotation Yrotation Xrotation
		JOINT RightHip
		{
			OFFSET -1.12808 -1.82971 0.84907
			CHANNELS 3 Zrotation Yrotation Xrotation
			JOINT RightKnee
			{
				OFFSET -2.53425 -6.96280 0.00000
				CHANNELS 3 Zrotation Yrotation Xrotation
				JOINT RightAnkle
				{
					OFFSET -2.58413 -7.09983 0.00000
					CHANNELS 3 Zrotation Yrotation Xrotation
					JOINT RightToe
					{
						OFFSET -0.26437 -0.72636 1.92241
						CHANNELS 3 Zrotation Yrotation Xrotation
						End Site
						{
							OFFSET -0.00000 -0.00000 1.02667
						}
					}
				}
			}
		}
	}
	JOINT lowerback
	{
		OFFSET 0 0 0
		CHANNELS 3 Zrotation Yrotation Xrotation
		JOINT Chest
		{
			OFFSET -0.02096 2.02288 -0.14752
			CHANNELS 3 Zrotation Yrotation Xrotation
			JOINT Chest2
			{
				OFFSET 0.03477 2.03136 -0.02358
				CHANNELS 3 Zrotation Yrotation Xrotation
				JOINT lowerneck
				{
					OFFSET 0 0 0
					CHANNELS 3 Zrotation Yrotation Xrotation
					JOINT Neck
					{
						OFFSET 0.00174 1.74359 0.19336
						CHANNELS 3 Zrotation Yrotation Xrotation
						JOINT Head
						{
							OFFSET -0.03054 1.76140 -0.17751
							CHANNELS 3 Zrotation Yrotation Xrotation
							End Site
							{
								OFFSET -0.00863 1.77239 -0.08120
							}
						}
					}
				}
				JOINT LeftCollar
				{
					OFFSET 0 0 0
					CHANNELS 3 Zrotation Yrotation Xrotation
					JOINT LeftShoulder
					{
						OFFSET 3.68685 1.32687 -0.67367
CHANNELS 3 Zrotation Xrotation Yrotation
						JOINT LeftElbow
						{
OFFSET 0 -4.764680 -0.000000
CHANNELS 3 Zrotation Xrotation Yrotation
							JOINT LeftWrist
							{
OFFSET 0 -3.527120 -0.000000
CHANNELS 3 Zrotation Xrotation Yrotation
								JOINT lhand
								{
									OFFSET 0 0 0
CHANNELS 3 Zrotation Xrotation Yrotation
									JOINT LFingers
									{
OFFSET 0 -0.859560 -0.000000
CHANNELS 3 Zrotation Xrotation Yrotation
										End Site
										{
OFFSET 0 -0.693000 -0.000000
										}
									}
								}
								JOINT LThumb
								{
OFFSET 0 0.000000 0.000000
CHANNELS 3 Zrotation Xrotation Yrotation
									End Site
									{
OFFSET 0 -0.703580 0.703580
									}
								}
							}
						}
					}
				}
				JOINT RightCollar
				{
					OFFSET 0 0 0
					CHANNELS 3 Zrotation Yrotation Xrotation
					JOINT RightShoulder
					{
						OFFSET -3.31304 1.28268 -0.97357
CHANNELS 3 Zrotation Xrotation Yrotation
						JOINT RightElbow
						{
OFFSET 0 -4.905770 -0.000000
CHANNELS 3 Zrotation Xrotation Yrotation
							JOINT RightWrist
							{
OFFSET 0 -3.426920 0.000000
CHANNELS 3 Zrotation Xrotation Yrotation
								JOINT rhand
								{
									OFFSET 0 0 0
CHANNELS 3 Zrotation Xrotation Yrotation
									JOINT RFingers
									{
OFFSET 0 -0.740960 -0.000000
CHANNELS 3 Zrotation Xrotation Yrotation
										End Site
										{
OFFSET 0 -0.597380 -0.000000
										}
									}
								}
								JOINT RThumb
								{
OFFSET 0 0.000000 0.000000
CHANNELS 3 Zrotation Xrotation Yrotation
									End Site
									{
OFFSET 0 -0.606500 0.606500
									}
								}
							}
						}
					}
				}
			}
		}
	}
}
MOTION
Frames: 10
Frame Time: 0.008333333333333333
0.328633 15.451212 -0.889988 -1.097936 -1.175112 14.955915 0.000000 0.000000 0.000000 1.732178 1.995100 -25.541846 7.541258 15.768565 50.888372 4.181980 -4.591385 -37.833189 4.913261 -13.285371 -40.446416 0.000000 0.000000 0.000000 1.242679 6.755825 -28.414387 -9.095657 -16.866722 56.417241 -3.875675 -6.905093 -39.987531 -0.255206 3.250370 -8.976604 -3.214239 1.688363 18.980104 2.148636 1.762292 -0.690711 3.713904 1.102094 -11.645086 0.179219 1.348955 -21.853831 -1.259360 1.930990 8.505703 -0.219026 0.831821 6.098475 0.000000 0.000000 0.000000 4.657126 6.495760 -35.935560 75.487370 -59.116741 47.476254 21.302297 -28.161976 29.481053 0.000000 0.000000 0.000000 -7.125000 0.000000 0.000000 -5.542491 -1.140075 -5.678389 0.000000 0.000000 0.000000 -11.681898 0.802871 24.891182 -67.887059 -58.000203 -40.986963 -14.670480 -2.536831 29.934965 0.000000 0.000000 0.000000 7.125000 0.000000 0.000000 18.968063 59.740363 -6.944282
0.334308 15.567238 -0.591665 -0.993087 -0.898009 14.393854 0.000000 0.000000 0.000000 1.431793 1.885623 -22.095756 6.671576 15.025861 47.579689 4.044491 -5.000637 -37.099992 4.926799 -13.300860 -40.505440 0.000000 0.000000 0.000000 1.648640 5.426192 -25.398742 -8.304294 -16.324003 53.628637 -3.760360 -6.862900 -39.424041 -0.268021 3.330170 -9.199464 -3.146145 1.564065 18.379255 2.112945 1.626232 -0.990825 3.678221 1.038594 -11.624180 0.058893 1.310090 -21.839594 -1.089478 1.899507 9.343458 -0.145377 0.821655 6.365638 0.000000 0.000000 0.000000 6.209763 8.198832 -36.409792 84.358347 -59.748857 55.123551 21.831423 -28.847735 29.739899 0.000000 0.000000 0.000000 -7.125000 0.000000 0.000000 -5.271049 -1.512541 -5.430349 0.000000 0.000000 0.000000 -13.027316 2.494086 24.943043 -76.615750 -59.170064 -48.452626 -13.060618 -1.634994 28.726472 0.000000 0.000000 0.000000 7.125000 0.000000 0.000000 19.799381 58.233246 -6.569208
0.338057 15.725545 -0.254248 -0.864728 -0.654151 13.585378 0.000000 0.000000 0.000000 0.975756 1.725206 -17.864456 5.686085 14.082898 43.641990 3.803498 -5.190361 -35.874857 4.944306 -13.320728 -40.581375 0.000000 0.000000 0.000000 2.048947 3.912653 -21.721599 -7.360761 -15.603090 50.182429 -3.573913 -6.744753 -38.471277 -0.271785 3.353552 -9.264784 -3.146085 1.458732 17.624817 2.067390 1.503243 -1.287426 3.666637 0.983151 -11.511624 0.032414 1.253681 -21.622164 -0.929421 1.820393 10.416250 -0.095772 0.791470 6.678871 0.000000 0.000000 0.000000 7.833032 10.202721 -36.791212 92.329348 -59.901511 62.014910 21.846306 -29.031573 29.940205 0.000000 0.000000 0.000000 -7.125000 0.000000 0.000000 -5.288918 -1.720753 -5.468383 0.000000 0.000000 0.000000 -14.535953 4.433865 25.129391 -85.058926 -59.805940 -55.725711 -12.082687 0.087951 27.734808 0.000000 0.000000 0.000000 7.125000 0.000000 0.000000 20.132203 57.092792 -6.131326
0.341593 15.923074 0.123768 -0.685271 -0.463367 12.564348 0.000000 0.000000 0.000000 0.317700 1.567111 -13.016826 4.656268 12.966755 39.275165 3.450115 -4.996558 -34.102922 5.004129 -13.387804 -40.839138 0.000000 0.000000 0.000000 2.337077 2.279346 -17.437634 -6.306476 -14.703832 46.170917 -3.302112 -6.552804 -37.025596 -0.272209 3.354842 -9.268466 -3.238334 1.378051 16.661741 2.000053 1.396297 -1.577630 3.678224 0.937345 -11.272560 0.206901 1.192570 -21.168996 -0.929282 1.703740 11.633146 -0.136009 0.737571 7.006571 0.000000 0.000000 0.000000 9.517867 12.483326 -37.057960 99.135946 -59.662635 67.901646 21.297052 -28.663017 29.989227 0.000000 0.000000 0.000000 -7.125000 0.000000 0.000000 -5.612349 -1.659308 -5.800234 0.000000 0.000000 0.000000 -16.210898 6.659860 25.445822 -92.953148 -59.933965 -62.555667 -11.407521 2.213758 26.963738 0.000000 0.000000 0.000000 7.125000 0.000000 0.000000 20.312686 56.230744 -5.762528
0.356377 16.163924 0.559630 -0.245249 -0.140501 11.311291 0.000000 0.000000 0.000000 -0.795543 1.303157 -7.658476 3.622144 11.608428 34.401412 2.894720 -3.965332 -31.262499 5.220908 -13.627391 -41.766507 0.000000 0.000000 0.000000 2.014285 0.036145 -12.559201 -5.175255 -13.554484 41.527464 -2.777844 -6.167905 -34.070766 -0.311583 3.586554 -9.916427 -3.387657 1.204880 15.419010 1.881040 1.158939 -1.845596 3.696945 0.826429 -10.829492 0.654872 1.194576 -20.663895 -1.515062 1.703294 13.217688 -0.400112 0.695819 7.457292 0.000000 0.000000 0.000000 11.329515 15.136462 -37.148149 104.592731 -59.150402 72.599702 20.416338 -27.847307 30.152591 0.000000 0.000000 0.000000 -7.125000 0.000000 0.000000 -6.141520 -1.651211 -6.352287 0.000000 0.000000 0.000000 -18.250469 9.417077 26.167629 -100.198848 -59.553969 -68.817315 -11.190370 3.938560 27.219891 0.000000 0.000000 0.000000 7.125000 0.000000 0.000000 20.694539 56.426128 -5.977079
0.372274 16.434307 0.999008 -0.167887 0.034465 10.755135 0.000000 0.000000 0.000000 -1.423773 1.343442 -3.660588 2.896127 10.491933 30.618103 2.096788 -2.587149 -26.489292 5.716378 -14.136995 -43.811684 0.000000 0.000000 0.000000 2.003643 -1.326099 -9.014743 -4.372532 -12.616908 37.987406 -2.019537 -6.097089 -29.372890 -0.335077 3.719353 -10.288511 -3.197759 1.035986 13.361536 1.832285 1.017739 -2.227651 3.572454 0.737898 -10.036127 0.877536 1.216740 -20.266907 -1.788458 1.749551 14.837505 -0.521354 0.695497 7.936959 0.000000 0.000000 0.000000 13.254432 17.837648 -37.098524 109.199498 -58.521970 76.541086 19.688975 -27.002768 30.332422 0.000000 0.000000 0.000000 -7.125000 0.000000 0.000000 -6.582853 -1.693038 -6.819490 0.000000 0.000000 0.000000 -20.483530 11.718990 27.167246 -106.087484 -58.941457 -73.877886 -11.685122 4.681089 27.215402 0.000000 0.000000 0.000000 7.125000 0.000000 0.000000 20.192856 56.522833 -5.870808
0.388535 16.743876 1.435513 -0.338079 0.141012 10.187365 0.000000 0.000000 0.000000 -1.733763 1.699597 -0.212267 2.351748 9.545083 27.530293 1.281822 -1.247733 -20.592047 6.444741 -14.824418 -46.702555 0.000000 0.000000 0.000000 2.276523 -2.302053 -5.988948 -3.775227 -11.844477 35.198048 -1.191614 -6.393192 -23.355196 -0.374084 3.922683 -10.860046 -2.758889 0.882874 11.425802 1.851974 0.931496 -2.565473 3.365736 0.663945 -9.263433 1.015129 1.260252 -19.893380 -1.977210 1.838670 16.360607 -0.597035 0.719687 8.390669 0.000000 0.000000 0.000000 15.158147 20.435377 -36.857604 113.093064 -57.864195 79.853303 18.987156 -26.033754 30.607335 0.000000 0.000000 0.000000 -7.125000 0.000000 0.000000 -7.019343 -1.837955 -7.296200 0.000000 0.000000 0.000000 -22.893284 13.669970 28.255373 -111.138509 -58.204157 -78.191887 -11.989879 4.770079 27.152886 0.000000 0.000000 0.000000 7.125000 0.000000 0.000000 19.845959 56.526415 -5.766134
0.404377 17.096544 1.866964 -0.692174 0.218943 9.373208 0.000000 0.000000 0.000000 -1.817963 2.262193 2.949145 1.937862 8.729741 24.957177 0.557947 -0.183214 -13.679731 7.326167 -15.599211 -50.095010 0.000000 0.000000 0.000000 2.796365 -3.052721 -3.253597 -3.336702 -11.218931 33.024288 -0.384078 -7.159289 -16.046187 -0.441297 4.259312 -11.807887 -2.128028 0.747116 9.922611 1.934764 0.876793 -2.800108 3.109122 0.598752 -8.627733 1.110474 1.320428 -19.504589 -2.152192 1.961704 17.719603 -0.658119 0.759542 8.790118 0.000000 0.000000 0.000000 16.961731 22.879136 -36.383831 116.251736 -57.226121 82.522637 18.286154 -24.826939 31.012187 0.000000 0.000000 0.000000 -7.125000 0.000000 0.000000 -7.469278 -2.115486 -7.805990 0.000000 0.000000 0.000000 -25.460789 15.301610 29.360098 -115.495576 -57.387633 -81.885178 -11.902091 4.469938 26.995028 0.000000 0.000000 0.000000 7.125000 0.000000 0.000000 19.838901 56.359049 -5.687038
0.415520 17.484043 2.296066 -0.995131 0.368416 8.588849 0.000000 0.000000 0.000000 -2.007998 1.996159 5.608224 1.577330 7.909499 22.447347 0.121713 -0.138863 -4.414742 7.775995 -15.949120 -51.746784 0.000000 0.000000 0.000000 3.272047 -3.466890 -1.333857 -3.000389 -10.690429 31.248299 0.151185 -8.990921 -6.704159 -0.539584 4.700301 -13.056859 -1.563272 0.601358 8.462506 2.023393 0.773232 -2.950249 2.902371 0.514433 -7.925391 1.101931 1.348658 -19.037748 -2.210064 2.044538 18.793843 -0.668669 0.787921 9.079033 0.000000 0.000000 0.000000 18.435729 25.252494 -35.543829 118.254607 -56.751331 84.201602 17.775481 -22.771024 31.564686 0.000000 0.000000 0.000000 -7.125000 0.000000 0.000000 -7.825056 -2.576905 -8.245716 0.000000 0.000000 0.000000 -28.033394 16.642925 30.453951 -118.945626 -56.566277 -84.776415 -12.624343 5.127483 25.807272 0.000000 0.000000 0.000000 7.125000 0.000000 0.000000 18.402495 55.378489 -4.817097
0.422147 17.876393 2.712900 -1.218519 0.559541 7.901902 0.000000 0.000000 0.000000 -2.389344 1.219646 7.854571 1.272614 7.128402 20.105521 0.176666 0.211832 4.812999 7.813928 -15.980473 -51.889258 0.000000 0.000000 0.000000 3.698716 -3.816657 0.230639 -2.698090 -10.181832 29.574797 0.237472 -10.984702 1.115633 -0.469532 4.376825 -12.142079 -1.122525 0.466975 7.075279 2.086093 0.651828 -3.074239 2.737329 0.428830 -7.241282 1.093499 1.328545 -18.573695 -2.284553 2.062356 19.727793 -0.693938 0.784684 9.320498 0.000000 0.000000 0.000000 19.715348 27.547287 -34.361128 119.455990 -56.450901 85.205430 17.592117 -20.696652 32.521218 0.000000 0.000000 0.000000 -7.125000 0.000000 0.000000 -8.045002 -3.501406 -8.605259 0.000000 0.000000 0.000000 -30.435486 17.868371 31.285957 -121.901478 -55.760088 -87.231277 -12.625902 6.262275 25.610308 0.000000 0.000000 0.000000 7.125000 0.000000 0.000000 18.279115 55.193842 -4.690319
